<?xml version="1.0" encoding="utf-8" ?>
<svg xmlns="http://www.w3.org/2000/svg" xmlns:xlink="http://www.w3.org/1999/xlink" width="512" height="512">
	<path fill="#7E76DA" d="M105.165 331.447L115.582 336.764C119.802 339.039 119.442 338.458 119.44 343.199L119.517 409.848C114.973 407.339 111.555 405.238 107.116 402.485L86.1511 389.473L51.0034 367.099L105.165 331.447Z"/>
	<path fill="#7E76DA" d="M408.259 331.714C417.959 340.065 428.84 346.569 439.636 353.385L461.621 366.991L424.658 390.264L400.845 405.568C398.108 407.296 395.13 408.461 392.465 410.163L392.359 340.361C393.337 338.455 406.232 332.446 408.259 331.714Z"/>
	<path fill="#7E76DA" d="M253.479 20.8556C267.861 17.6743 281.075 33.7616 290.379 42.2887L373.663 116.502L258.146 191.603C257.476 192.132 256.7 192.539 255.963 192.969L188.042 148.172L143.123 119.759C137.863 116.487 138.318 116.832 142.852 112.875L231.969 33.2343C238.626 27.3172 244.07 21.7971 253.479 20.8556Z"/>
	<path fill="#7E76DA" d="M398.247 138.876C398.955 138.447 399.37 138.034 400.209 138.058C407.659 143.987 414.669 150.72 421.656 157.186L453.589 185.661C461.163 192.128 467.215 199.158 469.915 209.035L471.469 215.742C474.518 228.771 469.562 247.912 460.053 257.266C457.234 260.039 453.829 262.357 450.5 264.469L448.506 265.65C448.191 266.219 446.134 267.276 445.461 267.709L391.564 302.042C384.159 306.802 362.594 317.821 360.071 326.771L359.948 327.25C359.086 330.534 359.473 334.403 359.47 337.795L359.416 429.803C357.971 431.209 355.289 432.24 353.484 433.3L338.172 442.427L281.048 478.816C272.847 484.117 265.038 486.745 255.217 486.755C242.461 486.767 234.193 481.086 223.789 474.225L155.175 430.933C151.734 428.97 152.263 430.036 152.232 425.838L152.238 340.238C152.225 326.157 153.235 323.18 140.171 314.84L80.0162 276.08C71.4705 270.56 62.215 265.528 54.3665 259.048C35.3192 243.322 35.4822 211.416 50.3281 193.002C53.0611 189.612 56.5398 186.866 59.8615 184.085L101.789 147.016C106.788 142.712 109.291 136.817 115.356 140.092C119.655 142.413 123.753 145.267 127.858 147.917L239.605 220.111C255.433 230.782 256.474 230.514 273.287 219.748L398.247 138.876ZM358.716 239.34C352.822 240.06 347.426 244.534 342.5 247.519L305.643 269.556C290.777 278.009 279.536 281.305 279.538 301.182L279.555 393.472C279.552 396.582 279.281 399.675 280.457 402.625L280.62 403.062C281.959 406.471 285.155 409.63 288.5 411.051L292.537 412.353C294.024 412.779 296.355 412.538 297.911 412.467C310.198 409.044 312.168 401.4 312.201 389.942L312.157 304.146C312.128 301.586 313.547 301.842 315.433 300.828L347.277 281.409C354.589 277 368.872 270.201 373.95 263.491L374.179 263.195C376.309 260.352 377.262 255.872 376.722 252.356L376.127 250.182C373.782 242.543 366.283 238.944 358.716 239.34ZM195.944 300.594L199.342 302.723C199.917 306.034 199.62 309.286 199.596 312.619L199.577 377.181L199.557 391.067C199.559 394.07 198.999 398.517 200.317 401.229C203.866 408.531 211.582 414.979 220.233 412.132L222.375 411.45C228.885 408.759 231.599 403.445 231.924 396.772L231.991 293.119C231.929 291.836 231.768 290.801 231.253 289.617L230.788 288.55C226.461 278.748 209.956 272.13 201.273 266.775L169.741 247.385C165.861 245.012 162.279 241.9 158 240.275C142.837 234.517 127.873 251.204 138.188 263.844C141.2 267.535 145.631 270.017 149.686 272.375L195.944 300.594ZM398.247 138.876C398.807 138.798 399.307 138.733 399.875 138.761L400.822 139.474C405.014 142.751 408.817 146.461 412.798 149.998L419.247 155.869C422.2 158.534 424.938 161.743 428.189 164.061L429.286 164.927C429.451 165.059 429.564 165.25 429.735 165.375L430.125 165.56C430.37 165.731 430.547 166.156 430.739 166.375L430.948 166.54C431.439 166.935 431.788 167.417 432.296 167.814L434.767 169.911C434.935 170.048 435.054 170.237 435.221 170.375L436.241 171.25C436.764 171.642 437.151 172.171 437.659 172.602L439.5 174.186C439.984 174.591 440.359 175.015 440.798 175.452L441.541 176.15C442.572 177.316 443.904 178.287 445.098 179.288L449.711 183.25C450.928 184.342 452.139 185.321 453.293 186.467L453.972 187.032C454.879 187.898 455.891 188.578 456.798 189.452L457.533 190.136C458.438 191.186 459.922 193.108 461.068 193.875L461.457 194.622C461.953 195.23 462.307 195.855 462.914 196.375L463.242 197.115C463.769 197.612 463.771 197.8 464.011 198.432L464.39 198.998C464.681 199.414 464.79 199.75 465.011 200.182L466.354 202.595C466.849 203.479 467.033 204.604 467.659 205.375L469.477 211.835C469.957 212.633 469.877 212.964 469.875 213.877L470.075 215.967C471.079 219.555 470.992 228.211 470.352 231.379C470.01 233.071 469.338 235.995 469.625 237.627L469.318 237.375C469.202 237.909 468.971 238.321 469.25 238.809L468.945 239.353C468.573 239.695 468.625 239.884 468.625 240.353L468.875 240.386C468.369 241.147 467.657 242.387 467.761 243.239L466.5 245.966C465.512 247.861 464.401 249.828 463.519 251.769L462.897 252.125C462.833 254.343 458.752 257.806 457.197 259L456.266 259.779C455.408 260.521 454.204 261.071 453.266 261.875L452.375 262.479C451.929 262.721 451.831 262.821 451.625 263.279L451.125 263.377C450.649 263.546 450.305 263.849 450 264.232L449.744 264.287C448.986 264.514 448.718 264.947 448.506 265.65L450.5 264.469C453.829 262.357 457.234 260.039 460.053 257.266C469.562 247.912 474.518 228.771 471.469 215.742L469.915 209.035C467.215 199.158 461.163 192.128 453.589 185.661L421.656 157.186C414.669 150.72 407.659 143.987 400.209 138.058C399.37 138.034 398.955 138.447 398.247 138.876ZM195.944 300.594C196.496 302.632 198.164 302.341 198.302 304.5L198.118 347.966C198.087 353.629 198.827 359.056 198.852 364.725L199.042 375.266C199.074 375.867 199.411 376.473 199.483 377.153L199.577 377.181L199.596 312.619C199.62 309.286 199.917 306.034 199.342 302.723L195.944 300.594Z"/>
	<defs>
		<linearGradient id="gradient_0" gradientUnits="userSpaceOnUse" x1="199.07921" y1="312.35147" x2="197.92079" y2="312.39853">
			<stop offset="0" stop-color="#7E76DA" stop-opacity="0.9137255"/>
			<stop offset="1" stop-color="#7E76DA" stop-opacity="0.95294118"/>
		</linearGradient>
	</defs>
	<path fill="url(#gradient_0)" d="M195.944 300.594L199.342 302.723C199.917 306.034 199.62 309.286 199.596 312.619L199.577 377.181L199.483 377.153C199.411 376.473 199.074 375.867 199.042 375.266L198.852 364.725C198.827 359.056 198.087 353.629 198.118 347.966L198.302 304.5C198.164 302.341 196.496 302.632 195.944 300.594Z"/>
	<path fill="#7E76DA" fill-opacity="0.9137255" d="M398.247 138.876C398.955 138.447 399.37 138.034 400.209 138.058C407.659 143.987 414.669 150.72 421.656 157.186L453.589 185.661C461.163 192.128 467.215 199.158 469.915 209.035L471.469 215.742C474.518 228.771 469.562 247.912 460.053 257.266C457.234 260.039 453.829 262.357 450.5 264.469L448.506 265.65C448.718 264.947 448.986 264.514 449.744 264.287L450 264.232C450.305 263.849 450.649 263.546 451.125 263.377L451.625 263.279C451.831 262.821 451.929 262.721 452.375 262.479L453.266 261.875C454.204 261.071 455.408 260.521 456.266 259.779L457.197 259C458.752 257.806 462.833 254.343 462.897 252.125L463.519 251.769C464.401 249.828 465.512 247.861 466.5 245.966L467.761 243.239C467.657 242.387 468.369 241.147 468.875 240.386L468.625 240.353C468.625 239.884 468.573 239.695 468.945 239.353L469.25 238.809C468.971 238.321 469.202 237.909 469.318 237.375L469.625 237.627C469.338 235.995 470.01 233.071 470.352 231.379C470.992 228.211 471.079 219.555 470.075 215.967L469.875 213.877C469.877 212.964 469.957 212.633 469.477 211.835L467.659 205.375C467.033 204.604 466.849 203.479 466.354 202.595L465.011 200.182C464.79 199.75 464.681 199.414 464.39 198.998L464.011 198.432C463.771 197.8 463.769 197.612 463.242 197.115L462.914 196.375C462.307 195.855 461.953 195.23 461.457 194.622L461.068 193.875C459.922 193.108 458.438 191.186 457.533 190.136L456.798 189.452C455.891 188.578 454.879 187.898 453.972 187.032L453.293 186.467C452.139 185.321 450.928 184.342 449.711 183.25L445.098 179.288C443.904 178.287 442.572 177.316 441.541 176.15L440.798 175.452C440.359 175.015 439.984 174.591 439.5 174.186L437.659 172.602C437.151 172.171 436.764 171.642 436.241 171.25L435.221 170.375C435.054 170.237 434.935 170.048 434.767 169.911L432.296 167.814C431.788 167.417 431.439 166.935 430.948 166.54L430.739 166.375C430.547 166.156 430.37 165.731 430.125 165.56L429.735 165.375C429.564 165.25 429.451 165.059 429.286 164.927L428.189 164.061C424.938 161.743 422.2 158.534 419.247 155.869L412.798 149.998C408.817 146.461 405.014 142.751 400.822 139.474L399.875 138.761C399.307 138.733 398.807 138.798 398.247 138.876Z"/>
</svg>
